<?xml version="1.0" standalone="no"?><!DOCTYPE svg PUBLIC "-//W3C//DTD SVG 1.1//EN" "http://www.w3.org/Graphics/SVG/1.1/DTD/svg11.dtd"><svg class="icon" width="256px" height="207.39px" viewBox="0 0 1264 1024" version="1.1" xmlns="http://www.w3.org/2000/svg"><path fill="#ffcf68" d="M1146.245754 254.721279c-0.511489 0-0.511489 0 0 0zM1244.451548 985.126873H1191.768232v-140.147852h-158.561439v140.147852h-31.200799c-0.511489-1.022977-1.534466-2.557443-2.557443-3.580419l-134.521478-144.751249c-3.58042-3.58042-8.695305-6.137862-13.81019-6.137862h-76.723277v-130.941059c23.016983-46.033966 16.879121-103.320679-19.436563-144.239761l-143.216783-161.630369 146.285714-157.026973c6.649351-7.160839 12.275724-15.344655 16.367632-24.03996h199.992008V159.072927h57.798202v46.545455c0 8.183816 5.114885 15.344655 12.787213 17.902098l94.625375 30.68931c2.045954 0.511489 3.58042 1.022977 5.626373 1.022977 3.58042 0 6.649351-1.022977 9.718282-2.557442l98.717283-61.89011c8.695305-5.626374 11.764236-17.390609 6.137862-26.085914-5.626374-8.695305-16.879121-11.252747-25.574426-6.137862l-91.044955 57.286713-73.142857-23.528472V68.539461L1145.734266 40.919081l75.700299 49.102897c8.695305 5.626374 19.948052 3.068931 25.574426-5.626374 5.626374-8.695305 3.068931-20.45954-5.626374-26.085914L1158.00999 4.091908c-4.603397-3.068931-10.741259-3.58042-16.367632-2.045954l-96.671329 35.292707c-7.672328 2.557443-12.275724 9.718282-12.275724 17.902098v65.982018h-57.798202V67.516484h-234.261738c-17.390609-12.787213-38.873127-19.948052-60.867133-20.971029-31.200799-1.534466-61.378621 10.22977-82.861139 32.223776l-158.561439 154.981019h-7.672327c-84.907093 1.022977-153.446553 70.585415-152.423577 155.492507 0.511489 63.936064 39.896104 118.153846 95.648352 141.170829 1.022977 2.045954 2.045954 4.091908 3.580419 6.137863l136.567433 140.65934v154.469531H435.788212c-5.626374 0-10.741259 2.557443-14.321679 7.160839l-118.665334 147.308691h-40.919081v-140.147852H102.809191v140.147852H18.925075c-10.22977 0-18.925075 8.183816-18.925075 18.925075s8.183816 18.925075 18.925075 18.925075h1225.526473c10.22977 0 18.925075-8.183816 18.925075-18.925075s-8.183816-19.948052-18.925075-19.948052z m-174.417582-102.297702h84.395604v84.907093h-83.884115v-84.907093z m-929.886114 0h83.884116v84.907093H140.147852v-84.907093z m589.746254-299.220779c32.223776 39.384615 26.597403 97.694306-12.787213 129.918082-35.804196 29.154845-87.976024 26.597403-120.711289-6.137863l-160.607392-165.722277c73.654346-1.022977 134.521479-53.706294 148.331668-123.268732l144.23976 163.164836c0 0.511489 0.511489 1.022977 1.534466 2.045954z m207.664336-408.167833h-150.377623c3.068931-24.03996-1.022977-48.591409-13.298701-70.585414h163.676324v70.585414z m-314.565435-69.562437c14.321678-14.833167 34.781219-22.505495 55.752248-21.482518 20.45954 1.022977 39.896104 10.22977 53.706293 26.085914 25.062937 29.154845 25.062937 72.631369-1.022977 101.274726l-143.728271 154.46953-3.068931-3.580419c-9.206793-56.263736-48.591409-101.786214-100.763237-120.199801l139.124875-136.567432z m-306.893107 280.807193c0.511489-64.447552 53.194805-116.107892 117.642358-115.596404 56.775225 0.511489 104.343656 41.942058 113.550449 96.15984-0.511489 3.068931 0 6.649351 1.022977 9.718282 0.511489 3.58042 0.511489 7.160839 0.511489 10.741259v1.022977c-0.511489 64.447552-53.194805 115.596404-117.642358 115.084915S315.588412 450.621379 316.0999 386.685315z m235.284715 328.375624l17.902098 18.413586c24.03996 24.03996 56.263736 37.85015 90.533467 37.85015 28.131868 0 55.240759-9.206793 77.234765-26.085914v85.93007h-185.67033v-116.107892z m-106.901099 153.446554h398.449551l108.435564 116.61938H350.36963l94.113886-116.61938z" /></svg>