<?xml version="1.0" standalone="no"?><!DOCTYPE svg PUBLIC "-//W3C//DTD SVG 1.1//EN" "http://www.w3.org/Graphics/SVG/1.1/DTD/svg11.dtd"><svg class="icon" width="256px" height="256.00px" viewBox="0 0 1024 1024" version="1.1" xmlns="http://www.w3.org/2000/svg"><path fill="#ffcf68" d="M160 224v576c0 35.296 28.704 64 64 64h576c35.296 0 64-28.704 64-64V224c0-35.296-28.704-64-64-64H224c-35.296 0-64 28.704-64 64z m640.032 576H224V224h576l0.032 576zM544 96V32a32 32 0 0 0-64 0v64a32 32 0 0 0 64 0zM448 96V32a32 32 0 0 0-64 0v64a32 32 0 0 0 64 0zM352 96V32a32 32 0 0 0-64 0v64a32 32 0 0 0 64 0zM640 96V32a32 32 0 0 0-64 0v64a32 32 0 0 0 64 0zM736 96V32a32 32 0 0 0-64 0v64a32 32 0 0 0 64 0zM480 928v64a32 32 0 0 0 64 0v-64a32 32 0 0 0-64 0zM384 928v64a32 32 0 0 0 64 0v-64a32 32 0 0 0-64 0zM288 928v64a32 32 0 0 0 64 0v-64a32 32 0 0 0-64 0zM576 928v64a32 32 0 0 0 64 0v-64a32 32 0 0 0-64 0zM672 928v64a32 32 0 0 0 64 0v-64a32 32 0 0 0-64 0zM992 480h-64a32 32 0 0 0 0 64h64a32 32 0 0 0 0-64zM992 384h-64a32 32 0 0 0 0 64h64a32 32 0 0 0 0-64zM992 288h-64a32 32 0 0 0 0 64h64a32 32 0 0 0 0-64zM992 576h-64a32 32 0 0 0 0 64h64a32 32 0 0 0 0-64zM992 672h-64a32 32 0 0 0 0 64h64a32 32 0 0 0 0-64zM32 544h64a32 32 0 0 0 0-64H32a32 32 0 0 0 0 64zM32 448h64a32 32 0 0 0 0-64H32a32 32 0 0 0 0 64zM32 352h64a32 32 0 0 0 0-64H32a32 32 0 0 0 0 64zM32 640h64a32 32 0 0 0 0-64H32a32 32 0 0 0 0 64zM96 736a32 32 0 0 0 0-64H32a32 32 0 0 0 0 64h64z"  /><path fill="#ffcf68" d="M288 288m-32 0a32 32 0 1 0 64 0 32 32 0 1 0-64 0Z"  /><path fill="#ffcf68" d="M736 288m-32 0a32 32 0 1 0 64 0 32 32 0 1 0-64 0Z"  /><path fill="#ffcf68" d="M736 736m-32 0a32 32 0 1 0 64 0 32 32 0 1 0-64 0Z"  /><path fill="#ffcf68" d="M288 736m-32 0a32 32 0 1 0 64 0 32 32 0 1 0-64 0Z"  /></svg>