<?xml version="1.0" standalone="no"?><!DOCTYPE svg PUBLIC "-//W3C//DTD SVG 1.1//EN" "http://www.w3.org/Graphics/SVG/1.1/DTD/svg11.dtd"><svg class="icon" width="256px" height="256.00px" viewBox="0 0 1024 1024" version="1.1" xmlns="http://www.w3.org/2000/svg"><path fill="#ffcf68" d="M837.461333 167.850667a170.666667 170.666667 0 0 0-164.266666-94.805334c-14.762667 0.938667-30.421333 4.821333-50.346667 10.069334a42.410667 42.410667 0 0 0-12.970667 3.498666L355.626667 154.752a42.453333 42.453333 0 0 0-14.293334 3.84l-32.768 8.746667c-36.864 9.898667-67.328 18.048-91.434666 26.88-25.088 9.258667-47.232 20.565333-65.536 38.826666a170.666667 170.666667 0 0 0-44.202667 76.544c-6.698667 25.002667-5.418667 49.834667-0.853333 76.202667 4.266667 24.533333 11.989333 53.845333 21.461333 89.173333v210.773334c0 57.770667 0 105.386667 5.077333 143.061333 5.333333 39.594667 16.938667 74.538667 44.928 102.528 27.989333 28.032 62.933333 39.594667 102.528 44.928 37.717333 5.12 85.333333 5.077333 143.061334 5.077333h176.810666c57.770667 0 105.386667 0 143.061334-5.077333 39.594667-5.333333 74.538667-16.896 102.528-44.928 28.032-27.989333 39.637333-62.933333 44.928-102.528 5.12-37.717333 5.12-85.333333 5.12-143.061333v-48.64c0-37.76 0-70.314667-3.541334-96.426667-3.754667-27.946667-12.245333-54.784-34.005333-76.501333-21.76-21.76-48.554667-30.250667-76.501333-34.005334C755.925333 426.666667 723.370667 426.666667 685.568 426.666667h-190.805333l294.869333-79.018667 2.432-0.64c7.210667-1.92 15.872-4.266667 23.552-8.021333a85.333333 85.333333 0 0 0 47.36-82.090667c-0.512-8.533333-2.858667-17.194667-4.821333-24.405333l-0.64-2.432-1.237334-4.565334c-6.528-24.405333-11.349333-42.496-18.816-57.642666z m-158.677333-9.685334a85.333333 85.333333 0 0 1 82.133333 47.445334c3.242667 6.570667 5.973333 15.786667 14.165334 46.549333 1.365333 5.077333 2.133333 7.850667 2.56 9.898667l0.085333 0.341333-0.341333 0.085333a340.053333 340.053333 0 0 1-9.813334 2.730667l-117.76 31.573333 16.298667-136.533333c5.930667-1.28 9.557333-1.877333 12.672-2.090667zM381.866667 368.554667l16.341333-136.874667 179.157333-48-16.341333 136.874667L381.866667 368.554667zM246.613333 274.346667c15.786667-5.802667 35.754667-11.52 62.805334-18.858667L293.12 392.362667l-92.16 24.661333c-4.693333-18.346667-8.149333-33.152-10.325333-45.781333-3.541333-20.48-2.986667-31.445333-0.810667-39.552a85.333333 85.333333 0 0 1 22.101333-38.272c5.930667-5.973333 15.146667-11.946667 34.645334-19.072zM213.333333 682.666667v-170.666667h469.333334c41.429333 0 68.224 0.085333 87.936 2.730667 18.517333 2.517333 24.32 6.528 27.562666 9.770666 3.242667 3.242667 7.253333 9.045333 9.770667 27.562667 2.645333 19.712 2.730667 46.506667 2.730667 87.936v42.666667c0 61.568-0.085333 103.424-4.266667 134.784-4.096 30.122667-11.221333 44.074667-20.736 53.546666-9.472 9.514667-23.466667 16.64-53.546667 20.693334-31.36 4.224-73.216 4.309333-134.784 4.309333h-170.666666c-61.568 0-103.424-0.085333-134.741334-4.266667-30.122667-4.096-44.074667-11.221333-53.589333-20.736-9.514667-9.472-16.64-23.466667-20.693333-53.546666-4.224-31.36-4.266667-73.216-4.266667-134.784z" /></svg>