<?xml version="1.0" standalone="no"?><!DOCTYPE svg PUBLIC "-//W3C//DTD SVG 1.1//EN" "http://www.w3.org/Graphics/SVG/1.1/DTD/svg11.dtd"><svg class="icon" width="256px" height="256.00px" viewBox="0 0 1024 1024" version="1.1" xmlns="http://www.w3.org/2000/svg"><path fill="#ffcf68" d="M412.890839 627.614311H49.542024c-27.306628 0-49.542024 22.235397-49.542024 49.542024v231.228623c0 27.306628 22.235397 49.542024 49.542024 49.542024H132.144573v33.036143H99.10843V1023.999269h264.240384v-33.036144h-33.036143V957.926982h82.578168c27.306628 0 49.566405-22.211016 49.566405-49.542024v-231.228623c0-27.306628-22.235397-49.542024-49.566405-49.542024zM49.542024 660.650454h363.348815c9.118463 0 16.530262 7.411799 16.530262 16.505881v181.686598H33.036143v-181.686598c0-9.094082 7.411799-16.505881 16.505881-16.505881z m247.758885 330.312671h-132.144574V957.926982h132.144574v33.036143z m115.58993-66.072286H49.542024a16.554643 16.554643 0 0 1-16.505881-16.505881v-16.505882h396.384958v16.505882a16.554643 16.554643 0 0 1-16.530262 16.505881z"  /><path fill="#ffcf68" d="M363.348814 792.770647h33.036144v33.036143h-33.036144zM297.300909 792.770647h33.011762v33.036143h-33.011762zM231.228622 792.770647h33.036143v33.036143H231.228622zM974.456513 0.000731h-165.156336c-27.306628 0-49.566405 22.235397-49.566405 49.542025v297.300909c0 27.306628 22.235397 49.542024 49.566405 49.542024h165.156336c27.306628 0 49.542024-22.235397 49.542024-49.542024V49.542756C1023.998537 22.236128 1001.76314 0.000731 974.456513 0.000731z m-165.156336 33.036144h165.156336c9.094082 0 16.505881 7.411799 16.505881 16.505881v16.530262h-198.192479v-16.530262c0-9.094082 7.411799-16.505881 16.530262-16.505881z m181.662217 66.072286v198.192479h-198.192479v-198.21686h198.21686z m-16.505881 264.240385h-165.156336a16.554643 16.554643 0 0 1-16.530262-16.505881v-16.530263h198.21686v16.530263a16.554643 16.554643 0 0 1-16.530262 16.505881zM744.520079 710.192479h86.064639c-36.327567 125.561725-153.282829 214.69836-285.549306 214.69836h-16.530262V1023.999269h16.530262a395.458483 395.458483 0 0 0 387.656589-313.80679h87.42997l-127.195247-211.992078-148.406645 211.992078z m160.670247-33.036144l-2.413711 13.653314A362.44672 362.44672 0 0 1 561.541293 990.597412v-33.084906c147.74836-7.484942 275.089893-114.687836 306.346229-260.388199l4.291042-19.967972H807.983608l82.846357-118.320592 70.997232 118.320592h-56.61249zM279.478458 313.807521H193.511343c36.327567-125.561725 153.209686-214.69836 285.451782-214.69836h16.530262V0.000731h-16.530262A395.507245 395.507245 0 0 0 91.257774 313.807521H3.900947l127.195247 211.992078 148.406645-211.992078zM118.735068 346.843665l2.413711-13.653314A362.495482 362.495482 0 0 1 462.457244 33.402588v33.084906c-147.699599 7.460561-275.01675 114.639074-306.273086 260.388199l-4.291042 19.967972h64.121814l-82.821977 118.320592-70.997232-118.320592h56.563728z"  /><path fill="#ffcf68" d="M297.300909 379.855427c0 5.997706 0.390095 11.94665 1.121522 17.846832a99.157192 99.157192 0 0 0-83.724071 97.767479 99.205954 99.205954 0 0 0 99.10843 99.10843h396.384957a99.205954 99.205954 0 0 0 99.10843-99.084049 99.205954 99.205954 0 0 0-87.234923-98.328241 115.077931 115.077931 0 0 0-110.957556-83.358357c-10.264366 0-20.333685 1.34095-30.134814 3.998471a148.284741 148.284741 0 0 0-135.045902-86.576639 148.821121 148.821121 0 0 0-148.626073 148.650455z m258.437726-36.059377l5.631992 17.261689 16.652166-7.289894a81.895502 81.895502 0 0 1 33.084905-6.92418c34.620903 0 64.463146 21.211398 76.653605 52.199544a99.181573 99.181573 0 0 0-76.653605 96.45091h33.011763a66.121048 66.121048 0 0 1 66.072286-66.072287 66.121048 66.121048 0 0 1 66.072287 66.072287 66.121048 66.121048 0 0 1-66.072287 66.072286H313.80679a66.121048 66.121048 0 0 1-66.072287-66.072286 66.121048 66.121048 0 0 1 66.072287-66.072287 66.121048 66.121048 0 0 1 66.072286 66.072287h33.011763a99.230334 99.230334 0 0 0-80.944647-97.377385 115.85812 115.85812 0 0 1-1.633521-18.236926 115.736216 115.736216 0 0 1 115.614311-115.614311 115.32174 115.32174 0 0 1 109.787272 79.530553z"  /></svg>